<mxfile host="app.diagrams.net" modified="2021-04-10T21:21:01.523Z" agent="5.0 (Windows NT 10.0; Win64; x64) AppleWebKit/537.36 (KHTML, like Gecko) Chrome/88.0.4324.182 Safari/537.36 OPR/74.0.3911.203" etag="ifKcW0jkdIOGbP0C_Vxl" version="14.5.10" type="github">
  <diagram id="0OpG36uC_l2O-A9Mquys" name="Page-1">
    <mxGraphModel dx="998" dy="548" grid="1" gridSize="10" guides="1" tooltips="1" connect="1" arrows="1" fold="1" page="1" pageScale="1" pageWidth="827" pageHeight="1169" math="0" shadow="0">
      <root>
        <mxCell id="0" />
        <mxCell id="1" parent="0" />
        <mxCell id="s_yaDZpPtMgB8WJ1-4bx-8" style="edgeStyle=orthogonalEdgeStyle;rounded=0;orthogonalLoop=1;jettySize=auto;html=1;" edge="1" parent="1" source="s_yaDZpPtMgB8WJ1-4bx-1" target="s_yaDZpPtMgB8WJ1-4bx-2">
          <mxGeometry relative="1" as="geometry" />
        </mxCell>
        <mxCell id="s_yaDZpPtMgB8WJ1-4bx-1" value="SD Kart bilgisayara takılır." style="rounded=1;whiteSpace=wrap;html=1;arcSize=17;fillColor=#dae8fc;strokeColor=#6c8ebf;" vertex="1" parent="1">
          <mxGeometry x="90" y="80" width="160" height="70" as="geometry" />
        </mxCell>
        <mxCell id="s_yaDZpPtMgB8WJ1-4bx-7" style="edgeStyle=orthogonalEdgeStyle;rounded=0;orthogonalLoop=1;jettySize=auto;html=1;entryX=0.5;entryY=0;entryDx=0;entryDy=0;" edge="1" parent="1" source="s_yaDZpPtMgB8WJ1-4bx-2" target="s_yaDZpPtMgB8WJ1-4bx-4">
          <mxGeometry relative="1" as="geometry" />
        </mxCell>
        <mxCell id="s_yaDZpPtMgB8WJ1-4bx-2" value="Yer İstasyonu arayüzünden gönderilicek videonun konumu seçilir." style="rounded=1;whiteSpace=wrap;html=1;arcSize=16;fillColor=#dae8fc;strokeColor=#6c8ebf;" vertex="1" parent="1">
          <mxGeometry x="90" y="170" width="160" height="70" as="geometry" />
        </mxCell>
        <mxCell id="s_yaDZpPtMgB8WJ1-4bx-5" style="edgeStyle=orthogonalEdgeStyle;rounded=0;orthogonalLoop=1;jettySize=auto;html=1;entryX=1;entryY=0.5;entryDx=0;entryDy=0;" edge="1" parent="1" source="s_yaDZpPtMgB8WJ1-4bx-4" target="s_yaDZpPtMgB8WJ1-4bx-2">
          <mxGeometry relative="1" as="geometry">
            <mxPoint x="280" y="200" as="targetPoint" />
            <Array as="points">
              <mxPoint x="270" y="330" />
              <mxPoint x="270" y="205" />
            </Array>
          </mxGeometry>
        </mxCell>
        <mxCell id="s_yaDZpPtMgB8WJ1-4bx-4" value="Video seçilen konumda mı ?" style="rhombus;whiteSpace=wrap;html=1;" vertex="1" parent="1">
          <mxGeometry x="110" y="270" width="120" height="120" as="geometry" />
        </mxCell>
        <mxCell id="s_yaDZpPtMgB8WJ1-4bx-6" value="Hayır" style="text;html=1;strokeColor=none;fillColor=none;align=center;verticalAlign=middle;whiteSpace=wrap;rounded=0;rotation=-90;" vertex="1" parent="1">
          <mxGeometry x="260" y="270" width="40" height="20" as="geometry" />
        </mxCell>
        <mxCell id="s_yaDZpPtMgB8WJ1-4bx-10" style="edgeStyle=orthogonalEdgeStyle;rounded=0;orthogonalLoop=1;jettySize=auto;html=1;entryX=0.5;entryY=0;entryDx=0;entryDy=0;" edge="1" parent="1" source="s_yaDZpPtMgB8WJ1-4bx-9" target="s_yaDZpPtMgB8WJ1-4bx-1">
          <mxGeometry relative="1" as="geometry" />
        </mxCell>
        <mxCell id="s_yaDZpPtMgB8WJ1-4bx-9" value="Başla" style="ellipse;whiteSpace=wrap;html=1;fillColor=#dae8fc;strokeColor=#6c8ebf;" vertex="1" parent="1">
          <mxGeometry x="145" y="10" width="50" height="50" as="geometry" />
        </mxCell>
      </root>
    </mxGraphModel>
  </diagram>
</mxfile>
